<?xml version="1.0" encoding="utf-8" standalone="no"?>
<!DOCTYPE svg PUBLIC "-//W3C//DTD SVG 1.1//EN"
  "http://www.w3.org/Graphics/SVG/1.1/DTD/svg11.dtd">
<svg xmlns:xlink="http://www.w3.org/1999/xlink" width="547.339209pt" height="291.6pt" viewBox="0 0 547.339209 291.6" xmlns="http://www.w3.org/2000/svg" version="1.1">
 <metadata>
  <rdf:RDF xmlns:dc="http://purl.org/dc/elements/1.1/" xmlns:cc="http://creativecommons.org/ns#" xmlns:rdf="http://www.w3.org/1999/02/22-rdf-syntax-ns#">
   <cc:Work>
    <dc:type rdf:resource="http://purl.org/dc/dcmitype/StillImage"/>
    <dc:date>2026-06-25T00:57:54.440201</dc:date>
    <dc:format>image/svg+xml</dc:format>
    <dc:creator>
     <cc:Agent>
      <dc:title>Matplotlib v3.10.8, https://matplotlib.org/</dc:title>
     </cc:Agent>
    </dc:creator>
   </cc:Work>
  </rdf:RDF>
 </metadata>
 <defs>
  <style type="text/css">*{stroke-linejoin: round; stroke-linecap: butt}</style>
 </defs>
 <g id="figure_1">
  <g id="patch_1">
   <path d="M 0 291.6 
L 547.339209 291.6 
L 547.339209 0 
L 0 0 
z
" style="fill: #ffffff"/>
  </g>
  <g id="axes_1">
   <g id="patch_2">
    <path d="M 33.52086 81.2124 
L 90.13554 81.2124 
Q 102.55104 81.2124 102.55104 74.2824 
L 102.55104 55.1556 
Q 102.55104 48.2256 90.13554 48.2256 
L 33.52086 48.2256 
Q 21.10536 48.2256 21.10536 55.1556 
L 21.10536 74.2824 
Q 21.10536 81.2124 33.52086 81.2124 
z
" clip-path="url(#pcf81d9e4c9)" style="fill: #f6f7f8; stroke: #333333; stroke-width: 1.4; stroke-linejoin: miter"/>
   </g>
   <g id="patch_3">
    <path d="M 137.81106 81.2124 
L 219.25674 81.2124 
Q 231.67224 81.2124 231.67224 74.2824 
L 231.67224 55.1556 
Q 231.67224 48.2256 219.25674 48.2256 
L 137.81106 48.2256 
Q 125.39556 48.2256 125.39556 55.1556 
L 125.39556 74.2824 
Q 125.39556 81.2124 137.81106 81.2124 
z
" clip-path="url(#pcf81d9e4c9)" style="fill: #f6f7f8; stroke: #333333; stroke-width: 1.4; stroke-linejoin: miter"/>
   </g>
   <g id="patch_4">
    <path d="M 276.86466 81.2124 
L 353.34414 81.2124 
Q 365.75964 81.2124 365.75964 74.2824 
L 365.75964 55.1556 
Q 365.75964 48.2256 353.34414 48.2256 
L 276.86466 48.2256 
Q 264.44916 48.2256 264.44916 55.1556 
L 264.44916 74.2824 
Q 264.44916 81.2124 276.86466 81.2124 
z
" clip-path="url(#pcf81d9e4c9)" style="fill: #eef7f2; stroke: #009e73; stroke-width: 1.4; stroke-linejoin: miter"/>
   </g>
   <g id="patch_5">
    <path d="M 405.98586 81.2124 
L 477.49914 81.2124 
Q 489.91464 81.2124 489.91464 74.2824 
L 489.91464 55.1556 
Q 489.91464 48.2256 477.49914 48.2256 
L 405.98586 48.2256 
Q 393.57036 48.2256 393.57036 55.1556 
L 393.57036 74.2824 
Q 393.57036 81.2124 405.98586 81.2124 
z
" clip-path="url(#pcf81d9e4c9)" style="fill: #f6f7f8; stroke: #333333; stroke-width: 1.4; stroke-linejoin: miter"/>
   </g>
   <g id="patch_6">
    <path d="M 98.590326 64.8576 
Q 113.970765 64.8576 127.841858 64.8576 
" clip-path="url(#pcf81d9e4c9)" style="fill: none; stroke: #444444; stroke-width: 1.35; stroke-linecap: round"/>
    <path d="M 123.041858 62.4576 
L 127.841858 64.8576 
L 123.041858 67.2576 
z
" clip-path="url(#pcf81d9e4c9)" style="fill: #444444; stroke: #444444; stroke-width: 1.35; stroke-linecap: round"/>
   </g>
   <g id="patch_7">
    <path d="M 227.712435 64.8576 
Q 248.061129 64.8576 266.900477 64.8576 
" clip-path="url(#pcf81d9e4c9)" style="fill: none; stroke: #444444; stroke-width: 1.35; stroke-linecap: round"/>
    <path d="M 262.100477 62.4576 
L 266.900477 64.8576 
L 262.100477 67.2576 
z
" clip-path="url(#pcf81d9e4c9)" style="fill: #444444; stroke: #444444; stroke-width: 1.35; stroke-linecap: round"/>
   </g>
   <g id="patch_8">
    <path d="M 361.803169 64.8576 
Q 379.664832 64.8576 396.017148 64.8576 
" clip-path="url(#pcf81d9e4c9)" style="fill: none; stroke: #444444; stroke-width: 1.35; stroke-linecap: round"/>
    <path d="M 391.217148 62.4576 
L 396.017148 64.8576 
L 391.217148 67.2576 
z
" clip-path="url(#pcf81d9e4c9)" style="fill: #444444; stroke: #444444; stroke-width: 1.35; stroke-linecap: round"/>
   </g>
   <g id="patch_9">
    <path d="M 88.14906 142.1964 
L 199.39194 142.1964 
Q 211.80744 142.1964 211.80744 135.2664 
L 211.80744 109.2096 
Q 211.80744 102.2796 199.39194 102.2796 
L 88.14906 102.2796 
Q 75.73356 102.2796 75.73356 109.2096 
L 75.73356 135.2664 
Q 75.73356 142.1964 88.14906 142.1964 
z
" clip-path="url(#pcf81d9e4c9)" style="fill: #eaf4fb; stroke: #0072b2; stroke-width: 1.4; stroke-linejoin: miter"/>
   </g>
   <g id="patch_10">
    <path d="M 306.66186 142.1964 
L 432.80334 142.1964 
Q 445.21884 142.1964 445.21884 135.2664 
L 445.21884 109.2096 
Q 445.21884 102.2796 432.80334 102.2796 
L 306.66186 102.2796 
Q 294.24636 102.2796 294.24636 109.2096 
L 294.24636 135.2664 
Q 294.24636 142.1964 306.66186 142.1964 
z
" clip-path="url(#pcf81d9e4c9)" style="fill: #eef7f2; stroke: #009e73; stroke-width: 1.4; stroke-linejoin: miter"/>
   </g>
   <g id="patch_11">
    <path d="M 313.106866 77.893028 
Q 227.271595 78.347366 147.106802 104.513282 
" clip-path="url(#pcf81d9e4c9)" style="fill: none; stroke: #0072b2; stroke-width: 1.35; stroke-linecap: round"/>
    <path d="M 152.414581 105.305425 
L 147.106802 104.513282 
L 150.925184 100.742345 
z
" clip-path="url(#pcf81d9e4c9)" style="fill: #0072b2; stroke: #0072b2; stroke-width: 1.35; stroke-linecap: round"/>
   </g>
   <g id="patch_12">
    <path d="M 321.900991 78.687846 
Q 346.192146 89.42967 366.841733 103.612077 
" clip-path="url(#pcf81d9e4c9)" style="fill: none; stroke: #009e73; stroke-width: 1.35; stroke-linecap: round"/>
    <path d="M 364.24381 98.916249 
L 366.841733 103.612077 
L 361.526317 102.872919 
z
" clip-path="url(#pcf81d9e4c9)" style="fill: #009e73; stroke: #009e73; stroke-width: 1.35; stroke-linecap: round"/>
   </g>
   <g id="patch_13">
    <path d="M 167.60826 194.8644 
L 343.41174 194.8644 
Q 355.82724 194.8644 355.82724 187.9344 
L 355.82724 163.2636 
Q 355.82724 156.3336 343.41174 156.3336 
L 167.60826 156.3336 
Q 155.19276 156.3336 155.19276 163.2636 
L 155.19276 187.9344 
Q 155.19276 194.8644 167.60826 194.8644 
z
" clip-path="url(#pcf81d9e4c9)" style="fill: #fff7df; stroke: #e69f00; stroke-width: 1.4; stroke-linejoin: miter"/>
   </g>
   <g id="patch_14">
    <path d="M 145.681475 139.462586 
Q 177.291757 149.264816 207.460416 158.620004 
" clip-path="url(#pcf81d9e4c9)" style="fill: none; stroke: #0072b2; stroke-width: 1.35; stroke-linecap: round"/>
    <path d="M 203.586624 154.906012 
L 207.460416 158.620004 
L 202.164947 159.490643 
z
" clip-path="url(#pcf81d9e4c9)" style="fill: #0072b2; stroke: #0072b2; stroke-width: 1.35; stroke-linecap: round"/>
   </g>
   <g id="patch_15">
    <path d="M 367.818746 139.442283 
Q 334.971746 149.264239 303.570827 158.653785 
" clip-path="url(#pcf81d9e4c9)" style="fill: none; stroke: #009e73; stroke-width: 1.35; stroke-linecap: round"/>
    <path d="M 308.8572 159.578046 
L 303.570827 158.653785 
L 307.482059 154.979243 
z
" clip-path="url(#pcf81d9e4c9)" style="fill: #009e73; stroke: #009e73; stroke-width: 1.35; stroke-linecap: round"/>
   </g>
   <g id="patch_16">
    <path d="M 53.38566 255.8484 
L 194.42574 255.8484 
Q 206.84124 255.8484 206.84124 248.9184 
L 206.84124 224.2476 
Q 206.84124 217.3176 194.42574 217.3176 
L 53.38566 217.3176 
Q 40.97016 217.3176 40.97016 224.2476 
L 40.97016 248.9184 
Q 40.97016 255.8484 53.38566 255.8484 
z
" clip-path="url(#pcf81d9e4c9)" style="fill: #fff2ec; stroke: #d55e00; stroke-width: 1.4; stroke-linejoin: miter"/>
   </g>
   <g id="patch_17">
    <path d="M 316.59426 255.8484 
L 457.63434 255.8484 
Q 470.04984 255.8484 470.04984 248.9184 
L 470.04984 224.2476 
Q 470.04984 217.3176 457.63434 217.3176 
L 316.59426 217.3176 
Q 304.17876 217.3176 304.17876 224.2476 
L 304.17876 248.9184 
Q 304.17876 255.8484 316.59426 255.8484 
z
" clip-path="url(#pcf81d9e4c9)" style="fill: #f6f7f8; stroke: #333333; stroke-width: 1.4; stroke-linejoin: miter"/>
   </g>
   <g id="patch_18">
    <path d="M 253.558333 191.986564 
Q 192.191132 206.090958 132.294924 219.857266 
" clip-path="url(#pcf81d9e4c9)" style="fill: none; stroke: #d55e00; stroke-width: 1.35; stroke-linecap: round"/>
    <path d="M 137.510547 221.121101 
L 132.294924 219.857266 
L 136.435366 216.443069 
z
" clip-path="url(#pcf81d9e4c9)" style="fill: #d55e00; stroke: #d55e00; stroke-width: 1.35; stroke-linecap: round"/>
   </g>
   <g id="patch_19">
    <path d="M 202.87901 236.7216 
Q 255.508615 236.7216 306.628873 236.7216 
" clip-path="url(#pcf81d9e4c9)" style="fill: none; stroke: #444444; stroke-width: 1.35; stroke-linecap: round"/>
    <path d="M 301.828873 234.3216 
L 306.628873 236.7216 
L 301.828873 239.1216 
z
" clip-path="url(#pcf81d9e4c9)" style="fill: #444444; stroke: #444444; stroke-width: 1.35; stroke-linecap: round"/>
   </g>
   <g id="text_1">
    <!-- Safe adaptive length target -->
    <g transform="translate(22.0986 31.8315) scale(0.16 -0.16)">
     <defs>
      <path id="DejaVuSans-Bold-53" d="M 3834 4519 
L 3834 3531 
Q 3450 3703 3084 3790 
Q 2719 3878 2394 3878 
Q 1963 3878 1756 3759 
Q 1550 3641 1550 3391 
Q 1550 3203 1689 3098 
Q 1828 2994 2194 2919 
L 2706 2816 
Q 3484 2659 3812 2340 
Q 4141 2022 4141 1434 
Q 4141 663 3683 286 
Q 3225 -91 2284 -91 
Q 1841 -91 1394 -6 
Q 947 78 500 244 
L 500 1259 
Q 947 1022 1364 901 
Q 1781 781 2169 781 
Q 2563 781 2772 912 
Q 2981 1044 2981 1288 
Q 2981 1506 2839 1625 
Q 2697 1744 2272 1838 
L 1806 1941 
Q 1106 2091 782 2419 
Q 459 2747 459 3303 
Q 459 4000 909 4375 
Q 1359 4750 2203 4750 
Q 2588 4750 2994 4692 
Q 3400 4634 3834 4519 
z
" transform="scale(0.015625)"/>
      <path id="DejaVuSans-Bold-61" d="M 2106 1575 
Q 1756 1575 1579 1456 
Q 1403 1338 1403 1106 
Q 1403 894 1545 773 
Q 1688 653 1941 653 
Q 2256 653 2472 879 
Q 2688 1106 2688 1447 
L 2688 1575 
L 2106 1575 
z
M 3816 1997 
L 3816 0 
L 2688 0 
L 2688 519 
Q 2463 200 2181 54 
Q 1900 -91 1497 -91 
Q 953 -91 614 226 
Q 275 544 275 1050 
Q 275 1666 698 1953 
Q 1122 2241 2028 2241 
L 2688 2241 
L 2688 2328 
Q 2688 2594 2478 2717 
Q 2269 2841 1825 2841 
Q 1466 2841 1156 2769 
Q 847 2697 581 2553 
L 581 3406 
Q 941 3494 1303 3539 
Q 1666 3584 2028 3584 
Q 2975 3584 3395 3211 
Q 3816 2838 3816 1997 
z
" transform="scale(0.015625)"/>
      <path id="DejaVuSans-Bold-66" d="M 2841 4863 
L 2841 4128 
L 2222 4128 
Q 1984 4128 1890 4042 
Q 1797 3956 1797 3744 
L 1797 3500 
L 2753 3500 
L 2753 2700 
L 1797 2700 
L 1797 0 
L 678 0 
L 678 2700 
L 122 2700 
L 122 3500 
L 678 3500 
L 678 3744 
Q 678 4316 997 4589 
Q 1316 4863 1984 4863 
L 2841 4863 
z
" transform="scale(0.015625)"/>
      <path id="DejaVuSans-Bold-65" d="M 4031 1759 
L 4031 1441 
L 1416 1441 
Q 1456 1047 1700 850 
Q 1944 653 2381 653 
Q 2734 653 3104 758 
Q 3475 863 3866 1075 
L 3866 213 
Q 3469 63 3072 -14 
Q 2675 -91 2278 -91 
Q 1328 -91 801 392 
Q 275 875 275 1747 
Q 275 2603 792 3093 
Q 1309 3584 2216 3584 
Q 3041 3584 3536 3087 
Q 4031 2591 4031 1759 
z
M 2881 2131 
Q 2881 2450 2695 2645 
Q 2509 2841 2209 2841 
Q 1884 2841 1681 2658 
Q 1478 2475 1428 2131 
L 2881 2131 
z
" transform="scale(0.015625)"/>
      <path id="DejaVuSans-Bold-20" transform="scale(0.015625)"/>
      <path id="DejaVuSans-Bold-64" d="M 2919 2988 
L 2919 4863 
L 4044 4863 
L 4044 0 
L 2919 0 
L 2919 506 
Q 2688 197 2409 53 
Q 2131 -91 1766 -91 
Q 1119 -91 703 423 
Q 288 938 288 1747 
Q 288 2556 703 3070 
Q 1119 3584 1766 3584 
Q 2128 3584 2408 3439 
Q 2688 3294 2919 2988 
z
M 2181 722 
Q 2541 722 2730 984 
Q 2919 1247 2919 1747 
Q 2919 2247 2730 2509 
Q 2541 2772 2181 2772 
Q 1825 2772 1636 2509 
Q 1447 2247 1447 1747 
Q 1447 1247 1636 984 
Q 1825 722 2181 722 
z
" transform="scale(0.015625)"/>
      <path id="DejaVuSans-Bold-70" d="M 1656 506 
L 1656 -1331 
L 538 -1331 
L 538 3500 
L 1656 3500 
L 1656 2988 
Q 1888 3294 2169 3439 
Q 2450 3584 2816 3584 
Q 3463 3584 3878 3070 
Q 4294 2556 4294 1747 
Q 4294 938 3878 423 
Q 3463 -91 2816 -91 
Q 2450 -91 2169 54 
Q 1888 200 1656 506 
z
M 2400 2772 
Q 2041 2772 1848 2508 
Q 1656 2244 1656 1747 
Q 1656 1250 1848 986 
Q 2041 722 2400 722 
Q 2759 722 2948 984 
Q 3138 1247 3138 1747 
Q 3138 2247 2948 2509 
Q 2759 2772 2400 2772 
z
" transform="scale(0.015625)"/>
      <path id="DejaVuSans-Bold-74" d="M 1759 4494 
L 1759 3500 
L 2913 3500 
L 2913 2700 
L 1759 2700 
L 1759 1216 
Q 1759 972 1856 886 
Q 1953 800 2241 800 
L 2816 800 
L 2816 0 
L 1856 0 
Q 1194 0 917 276 
Q 641 553 641 1216 
L 641 2700 
L 84 2700 
L 84 3500 
L 641 3500 
L 641 4494 
L 1759 4494 
z
" transform="scale(0.015625)"/>
      <path id="DejaVuSans-Bold-69" d="M 538 3500 
L 1656 3500 
L 1656 0 
L 538 0 
L 538 3500 
z
M 538 4863 
L 1656 4863 
L 1656 3950 
L 538 3950 
L 538 4863 
z
" transform="scale(0.015625)"/>
      <path id="DejaVuSans-Bold-76" d="M 97 3500 
L 1216 3500 
L 2088 1081 
L 2956 3500 
L 4078 3500 
L 2700 0 
L 1472 0 
L 97 3500 
z
" transform="scale(0.015625)"/>
      <path id="DejaVuSans-Bold-6c" d="M 538 4863 
L 1656 4863 
L 1656 0 
L 538 0 
L 538 4863 
z
" transform="scale(0.015625)"/>
      <path id="DejaVuSans-Bold-6e" d="M 4056 2131 
L 4056 0 
L 2931 0 
L 2931 347 
L 2931 1631 
Q 2931 2084 2911 2256 
Q 2891 2428 2841 2509 
Q 2775 2619 2662 2680 
Q 2550 2741 2406 2741 
Q 2056 2741 1856 2470 
Q 1656 2200 1656 1722 
L 1656 0 
L 538 0 
L 538 3500 
L 1656 3500 
L 1656 2988 
Q 1909 3294 2193 3439 
Q 2478 3584 2822 3584 
Q 3428 3584 3742 3212 
Q 4056 2841 4056 2131 
z
" transform="scale(0.015625)"/>
      <path id="DejaVuSans-Bold-67" d="M 2919 594 
Q 2688 288 2409 144 
Q 2131 0 1766 0 
Q 1125 0 706 504 
Q 288 1009 288 1791 
Q 288 2575 706 3076 
Q 1125 3578 1766 3578 
Q 2131 3578 2409 3434 
Q 2688 3291 2919 2981 
L 2919 3500 
L 4044 3500 
L 4044 353 
Q 4044 -491 3511 -936 
Q 2978 -1381 1966 -1381 
Q 1638 -1381 1331 -1331 
Q 1025 -1281 716 -1178 
L 716 -306 
Q 1009 -475 1290 -558 
Q 1572 -641 1856 -641 
Q 2406 -641 2662 -400 
Q 2919 -159 2919 353 
L 2919 594 
z
M 2181 2772 
Q 1834 2772 1640 2515 
Q 1447 2259 1447 1791 
Q 1447 1309 1634 1061 
Q 1822 813 2181 813 
Q 2531 813 2725 1069 
Q 2919 1325 2919 1791 
Q 2919 2259 2725 2515 
Q 2531 2772 2181 2772 
z
" transform="scale(0.015625)"/>
      <path id="DejaVuSans-Bold-68" d="M 4056 2131 
L 4056 0 
L 2931 0 
L 2931 347 
L 2931 1625 
Q 2931 2084 2911 2256 
Q 2891 2428 2841 2509 
Q 2775 2619 2662 2680 
Q 2550 2741 2406 2741 
Q 2056 2741 1856 2470 
Q 1656 2200 1656 1722 
L 1656 0 
L 538 0 
L 538 4863 
L 1656 4863 
L 1656 2988 
Q 1909 3294 2193 3439 
Q 2478 3584 2822 3584 
Q 3428 3584 3742 3212 
Q 4056 2841 4056 2131 
z
" transform="scale(0.015625)"/>
      <path id="DejaVuSans-Bold-72" d="M 3138 2547 
Q 2991 2616 2845 2648 
Q 2700 2681 2553 2681 
Q 2122 2681 1889 2404 
Q 1656 2128 1656 1613 
L 1656 0 
L 538 0 
L 538 3500 
L 1656 3500 
L 1656 2925 
Q 1872 3269 2151 3426 
Q 2431 3584 2822 3584 
Q 2878 3584 2943 3579 
Q 3009 3575 3134 3559 
L 3138 2547 
z
" transform="scale(0.015625)"/>
     </defs>
     <use xlink:href="#DejaVuSans-Bold-53"/>
     <use xlink:href="#DejaVuSans-Bold-61" transform="translate(72.021484 0)"/>
     <use xlink:href="#DejaVuSans-Bold-66" transform="translate(139.501953 0)"/>
     <use xlink:href="#DejaVuSans-Bold-65" transform="translate(183.007812 0)"/>
     <use xlink:href="#DejaVuSans-Bold-20" transform="translate(250.830078 0)"/>
     <use xlink:href="#DejaVuSans-Bold-61" transform="translate(285.644531 0)"/>
     <use xlink:href="#DejaVuSans-Bold-64" transform="translate(353.125 0)"/>
     <use xlink:href="#DejaVuSans-Bold-61" transform="translate(424.707031 0)"/>
     <use xlink:href="#DejaVuSans-Bold-70" transform="translate(492.1875 0)"/>
     <use xlink:href="#DejaVuSans-Bold-74" transform="translate(563.769531 0)"/>
     <use xlink:href="#DejaVuSans-Bold-69" transform="translate(611.572266 0)"/>
     <use xlink:href="#DejaVuSans-Bold-76" transform="translate(645.849609 0)"/>
     <use xlink:href="#DejaVuSans-Bold-65" transform="translate(711.035156 0)"/>
     <use xlink:href="#DejaVuSans-Bold-20" transform="translate(778.857422 0)"/>
     <use xlink:href="#DejaVuSans-Bold-6c" transform="translate(813.671875 0)"/>
     <use xlink:href="#DejaVuSans-Bold-65" transform="translate(847.949219 0)"/>
     <use xlink:href="#DejaVuSans-Bold-6e" transform="translate(915.771484 0)"/>
     <use xlink:href="#DejaVuSans-Bold-67" transform="translate(986.962891 0)"/>
     <use xlink:href="#DejaVuSans-Bold-74" transform="translate(1058.544922 0)"/>
     <use xlink:href="#DejaVuSans-Bold-68" transform="translate(1106.347656 0)"/>
     <use xlink:href="#DejaVuSans-Bold-20" transform="translate(1177.539062 0)"/>
     <use xlink:href="#DejaVuSans-Bold-74" transform="translate(1212.353516 0)"/>
     <use xlink:href="#DejaVuSans-Bold-61" transform="translate(1260.15625 0)"/>
     <use xlink:href="#DejaVuSans-Bold-72" transform="translate(1327.636719 0)"/>
     <use xlink:href="#DejaVuSans-Bold-67" transform="translate(1376.953125 0)"/>
     <use xlink:href="#DejaVuSans-Bold-65" transform="translate(1448.535156 0)"/>
     <use xlink:href="#DejaVuSans-Bold-74" transform="translate(1516.357422 0)"/>
    </g>
   </g>
   <g id="text_2">
    <!-- Compress solved/easy prompts; preserve reasoning budget for hard prompts -->
    <g style="fill: #555555" transform="translate(22.0986 41.6601) scale(0.096 -0.096)">
     <defs>
      <path id="DejaVuSans-43" d="M 4122 4306 
L 4122 3641 
Q 3803 3938 3442 4084 
Q 3081 4231 2675 4231 
Q 1875 4231 1450 3742 
Q 1025 3253 1025 2328 
Q 1025 1406 1450 917 
Q 1875 428 2675 428 
Q 3081 428 3442 575 
Q 3803 722 4122 1019 
L 4122 359 
Q 3791 134 3420 21 
Q 3050 -91 2638 -91 
Q 1578 -91 968 557 
Q 359 1206 359 2328 
Q 359 3453 968 4101 
Q 1578 4750 2638 4750 
Q 3056 4750 3426 4639 
Q 3797 4528 4122 4306 
z
" transform="scale(0.015625)"/>
      <path id="DejaVuSans-6f" d="M 1959 3097 
Q 1497 3097 1228 2736 
Q 959 2375 959 1747 
Q 959 1119 1226 758 
Q 1494 397 1959 397 
Q 2419 397 2687 759 
Q 2956 1122 2956 1747 
Q 2956 2369 2687 2733 
Q 2419 3097 1959 3097 
z
M 1959 3584 
Q 2709 3584 3137 3096 
Q 3566 2609 3566 1747 
Q 3566 888 3137 398 
Q 2709 -91 1959 -91 
Q 1206 -91 779 398 
Q 353 888 353 1747 
Q 353 2609 779 3096 
Q 1206 3584 1959 3584 
z
" transform="scale(0.015625)"/>
      <path id="DejaVuSans-6d" d="M 3328 2828 
Q 3544 3216 3844 3400 
Q 4144 3584 4550 3584 
Q 5097 3584 5394 3201 
Q 5691 2819 5691 2113 
L 5691 0 
L 5113 0 
L 5113 2094 
Q 5113 2597 4934 2840 
Q 4756 3084 4391 3084 
Q 3944 3084 3684 2787 
Q 3425 2491 3425 1978 
L 3425 0 
L 2847 0 
L 2847 2094 
Q 2847 2600 2669 2842 
Q 2491 3084 2119 3084 
Q 1678 3084 1418 2786 
Q 1159 2488 1159 1978 
L 1159 0 
L 581 0 
L 581 3500 
L 1159 3500 
L 1159 2956 
Q 1356 3278 1631 3431 
Q 1906 3584 2284 3584 
Q 2666 3584 2933 3390 
Q 3200 3197 3328 2828 
z
" transform="scale(0.015625)"/>
      <path id="DejaVuSans-70" d="M 1159 525 
L 1159 -1331 
L 581 -1331 
L 581 3500 
L 1159 3500 
L 1159 2969 
Q 1341 3281 1617 3432 
Q 1894 3584 2278 3584 
Q 2916 3584 3314 3078 
Q 3713 2572 3713 1747 
Q 3713 922 3314 415 
Q 2916 -91 2278 -91 
Q 1894 -91 1617 61 
Q 1341 213 1159 525 
z
M 3116 1747 
Q 3116 2381 2855 2742 
Q 2594 3103 2138 3103 
Q 1681 3103 1420 2742 
Q 1159 2381 1159 1747 
Q 1159 1113 1420 752 
Q 1681 391 2138 391 
Q 2594 391 2855 752 
Q 3116 1113 3116 1747 
z
" transform="scale(0.015625)"/>
      <path id="DejaVuSans-72" d="M 2631 2963 
Q 2534 3019 2420 3045 
Q 2306 3072 2169 3072 
Q 1681 3072 1420 2755 
Q 1159 2438 1159 1844 
L 1159 0 
L 581 0 
L 581 3500 
L 1159 3500 
L 1159 2956 
Q 1341 3275 1631 3429 
Q 1922 3584 2338 3584 
Q 2397 3584 2469 3576 
Q 2541 3569 2628 3553 
L 2631 2963 
z
" transform="scale(0.015625)"/>
      <path id="DejaVuSans-65" d="M 3597 1894 
L 3597 1613 
L 953 1613 
Q 991 1019 1311 708 
Q 1631 397 2203 397 
Q 2534 397 2845 478 
Q 3156 559 3463 722 
L 3463 178 
Q 3153 47 2828 -22 
Q 2503 -91 2169 -91 
Q 1331 -91 842 396 
Q 353 884 353 1716 
Q 353 2575 817 3079 
Q 1281 3584 2069 3584 
Q 2775 3584 3186 3129 
Q 3597 2675 3597 1894 
z
M 3022 2063 
Q 3016 2534 2758 2815 
Q 2500 3097 2075 3097 
Q 1594 3097 1305 2825 
Q 1016 2553 972 2059 
L 3022 2063 
z
" transform="scale(0.015625)"/>
      <path id="DejaVuSans-73" d="M 2834 3397 
L 2834 2853 
Q 2591 2978 2328 3040 
Q 2066 3103 1784 3103 
Q 1356 3103 1142 2972 
Q 928 2841 928 2578 
Q 928 2378 1081 2264 
Q 1234 2150 1697 2047 
L 1894 2003 
Q 2506 1872 2764 1633 
Q 3022 1394 3022 966 
Q 3022 478 2636 193 
Q 2250 -91 1575 -91 
Q 1294 -91 989 -36 
Q 684 19 347 128 
L 347 722 
Q 666 556 975 473 
Q 1284 391 1588 391 
Q 1994 391 2212 530 
Q 2431 669 2431 922 
Q 2431 1156 2273 1281 
Q 2116 1406 1581 1522 
L 1381 1569 
Q 847 1681 609 1914 
Q 372 2147 372 2553 
Q 372 3047 722 3315 
Q 1072 3584 1716 3584 
Q 2034 3584 2315 3537 
Q 2597 3491 2834 3397 
z
" transform="scale(0.015625)"/>
      <path id="DejaVuSans-20" transform="scale(0.015625)"/>
      <path id="DejaVuSans-6c" d="M 603 4863 
L 1178 4863 
L 1178 0 
L 603 0 
L 603 4863 
z
" transform="scale(0.015625)"/>
      <path id="DejaVuSans-76" d="M 191 3500 
L 800 3500 
L 1894 563 
L 2988 3500 
L 3597 3500 
L 2284 0 
L 1503 0 
L 191 3500 
z
" transform="scale(0.015625)"/>
      <path id="DejaVuSans-64" d="M 2906 2969 
L 2906 4863 
L 3481 4863 
L 3481 0 
L 2906 0 
L 2906 525 
Q 2725 213 2448 61 
Q 2172 -91 1784 -91 
Q 1150 -91 751 415 
Q 353 922 353 1747 
Q 353 2572 751 3078 
Q 1150 3584 1784 3584 
Q 2172 3584 2448 3432 
Q 2725 3281 2906 2969 
z
M 947 1747 
Q 947 1113 1208 752 
Q 1469 391 1925 391 
Q 2381 391 2643 752 
Q 2906 1113 2906 1747 
Q 2906 2381 2643 2742 
Q 2381 3103 1925 3103 
Q 1469 3103 1208 2742 
Q 947 2381 947 1747 
z
" transform="scale(0.015625)"/>
      <path id="DejaVuSans-2f" d="M 1625 4666 
L 2156 4666 
L 531 -594 
L 0 -594 
L 1625 4666 
z
" transform="scale(0.015625)"/>
      <path id="DejaVuSans-61" d="M 2194 1759 
Q 1497 1759 1228 1600 
Q 959 1441 959 1056 
Q 959 750 1161 570 
Q 1363 391 1709 391 
Q 2188 391 2477 730 
Q 2766 1069 2766 1631 
L 2766 1759 
L 2194 1759 
z
M 3341 1997 
L 3341 0 
L 2766 0 
L 2766 531 
Q 2569 213 2275 61 
Q 1981 -91 1556 -91 
Q 1019 -91 701 211 
Q 384 513 384 1019 
Q 384 1609 779 1909 
Q 1175 2209 1959 2209 
L 2766 2209 
L 2766 2266 
Q 2766 2663 2505 2880 
Q 2244 3097 1772 3097 
Q 1472 3097 1187 3025 
Q 903 2953 641 2809 
L 641 3341 
Q 956 3463 1253 3523 
Q 1550 3584 1831 3584 
Q 2591 3584 2966 3190 
Q 3341 2797 3341 1997 
z
" transform="scale(0.015625)"/>
      <path id="DejaVuSans-79" d="M 2059 -325 
Q 1816 -950 1584 -1140 
Q 1353 -1331 966 -1331 
L 506 -1331 
L 506 -850 
L 844 -850 
Q 1081 -850 1212 -737 
Q 1344 -625 1503 -206 
L 1606 56 
L 191 3500 
L 800 3500 
L 1894 763 
L 2988 3500 
L 3597 3500 
L 2059 -325 
z
" transform="scale(0.015625)"/>
      <path id="DejaVuSans-74" d="M 1172 4494 
L 1172 3500 
L 2356 3500 
L 2356 3053 
L 1172 3053 
L 1172 1153 
Q 1172 725 1289 603 
Q 1406 481 1766 481 
L 2356 481 
L 2356 0 
L 1766 0 
Q 1100 0 847 248 
Q 594 497 594 1153 
L 594 3053 
L 172 3053 
L 172 3500 
L 594 3500 
L 594 4494 
L 1172 4494 
z
" transform="scale(0.015625)"/>
      <path id="DejaVuSans-3b" d="M 750 3309 
L 1409 3309 
L 1409 2516 
L 750 2516 
L 750 3309 
z
M 750 794 
L 1409 794 
L 1409 256 
L 897 -744 
L 494 -744 
L 750 256 
L 750 794 
z
" transform="scale(0.015625)"/>
      <path id="DejaVuSans-6e" d="M 3513 2113 
L 3513 0 
L 2938 0 
L 2938 2094 
Q 2938 2591 2744 2837 
Q 2550 3084 2163 3084 
Q 1697 3084 1428 2787 
Q 1159 2491 1159 1978 
L 1159 0 
L 581 0 
L 581 3500 
L 1159 3500 
L 1159 2956 
Q 1366 3272 1645 3428 
Q 1925 3584 2291 3584 
Q 2894 3584 3203 3211 
Q 3513 2838 3513 2113 
z
" transform="scale(0.015625)"/>
      <path id="DejaVuSans-69" d="M 603 3500 
L 1178 3500 
L 1178 0 
L 603 0 
L 603 3500 
z
M 603 4863 
L 1178 4863 
L 1178 4134 
L 603 4134 
L 603 4863 
z
" transform="scale(0.015625)"/>
      <path id="DejaVuSans-67" d="M 2906 1791 
Q 2906 2416 2648 2759 
Q 2391 3103 1925 3103 
Q 1463 3103 1205 2759 
Q 947 2416 947 1791 
Q 947 1169 1205 825 
Q 1463 481 1925 481 
Q 2391 481 2648 825 
Q 2906 1169 2906 1791 
z
M 3481 434 
Q 3481 -459 3084 -895 
Q 2688 -1331 1869 -1331 
Q 1566 -1331 1297 -1286 
Q 1028 -1241 775 -1147 
L 775 -588 
Q 1028 -725 1275 -790 
Q 1522 -856 1778 -856 
Q 2344 -856 2625 -561 
Q 2906 -266 2906 331 
L 2906 616 
Q 2728 306 2450 153 
Q 2172 0 1784 0 
Q 1141 0 747 490 
Q 353 981 353 1791 
Q 353 2603 747 3093 
Q 1141 3584 1784 3584 
Q 2172 3584 2450 3431 
Q 2728 3278 2906 2969 
L 2906 3500 
L 3481 3500 
L 3481 434 
z
" transform="scale(0.015625)"/>
      <path id="DejaVuSans-62" d="M 3116 1747 
Q 3116 2381 2855 2742 
Q 2594 3103 2138 3103 
Q 1681 3103 1420 2742 
Q 1159 2381 1159 1747 
Q 1159 1113 1420 752 
Q 1681 391 2138 391 
Q 2594 391 2855 752 
Q 3116 1113 3116 1747 
z
M 1159 2969 
Q 1341 3281 1617 3432 
Q 1894 3584 2278 3584 
Q 2916 3584 3314 3078 
Q 3713 2572 3713 1747 
Q 3713 922 3314 415 
Q 2916 -91 2278 -91 
Q 1894 -91 1617 61 
Q 1341 213 1159 525 
L 1159 0 
L 581 0 
L 581 4863 
L 1159 4863 
L 1159 2969 
z
" transform="scale(0.015625)"/>
      <path id="DejaVuSans-75" d="M 544 1381 
L 544 3500 
L 1119 3500 
L 1119 1403 
Q 1119 906 1312 657 
Q 1506 409 1894 409 
Q 2359 409 2629 706 
Q 2900 1003 2900 1516 
L 2900 3500 
L 3475 3500 
L 3475 0 
L 2900 0 
L 2900 538 
Q 2691 219 2414 64 
Q 2138 -91 1772 -91 
Q 1169 -91 856 284 
Q 544 659 544 1381 
z
M 1991 3584 
L 1991 3584 
z
" transform="scale(0.015625)"/>
      <path id="DejaVuSans-66" d="M 2375 4863 
L 2375 4384 
L 1825 4384 
Q 1516 4384 1395 4259 
Q 1275 4134 1275 3809 
L 1275 3500 
L 2222 3500 
L 2222 3053 
L 1275 3053 
L 1275 0 
L 697 0 
L 697 3053 
L 147 3053 
L 147 3500 
L 697 3500 
L 697 3744 
Q 697 4328 969 4595 
Q 1241 4863 1831 4863 
L 2375 4863 
z
" transform="scale(0.015625)"/>
      <path id="DejaVuSans-68" d="M 3513 2113 
L 3513 0 
L 2938 0 
L 2938 2094 
Q 2938 2591 2744 2837 
Q 2550 3084 2163 3084 
Q 1697 3084 1428 2787 
Q 1159 2491 1159 1978 
L 1159 0 
L 581 0 
L 581 4863 
L 1159 4863 
L 1159 2956 
Q 1366 3272 1645 3428 
Q 1925 3584 2291 3584 
Q 2894 3584 3203 3211 
Q 3513 2838 3513 2113 
z
" transform="scale(0.015625)"/>
     </defs>
     <use xlink:href="#DejaVuSans-43"/>
     <use xlink:href="#DejaVuSans-6f" transform="translate(69.824219 0)"/>
     <use xlink:href="#DejaVuSans-6d" transform="translate(131.005859 0)"/>
     <use xlink:href="#DejaVuSans-70" transform="translate(228.417969 0)"/>
     <use xlink:href="#DejaVuSans-72" transform="translate(291.894531 0)"/>
     <use xlink:href="#DejaVuSans-65" transform="translate(330.757812 0)"/>
     <use xlink:href="#DejaVuSans-73" transform="translate(392.28125 0)"/>
     <use xlink:href="#DejaVuSans-73" transform="translate(444.380859 0)"/>
     <use xlink:href="#DejaVuSans-20" transform="translate(496.480469 0)"/>
     <use xlink:href="#DejaVuSans-73" transform="translate(528.267578 0)"/>
     <use xlink:href="#DejaVuSans-6f" transform="translate(580.367188 0)"/>
     <use xlink:href="#DejaVuSans-6c" transform="translate(641.548828 0)"/>
     <use xlink:href="#DejaVuSans-76" transform="translate(669.332031 0)"/>
     <use xlink:href="#DejaVuSans-65" transform="translate(728.511719 0)"/>
     <use xlink:href="#DejaVuSans-64" transform="translate(790.035156 0)"/>
     <use xlink:href="#DejaVuSans-2f" transform="translate(853.511719 0)"/>
     <use xlink:href="#DejaVuSans-65" transform="translate(887.203125 0)"/>
     <use xlink:href="#DejaVuSans-61" transform="translate(948.726562 0)"/>
     <use xlink:href="#DejaVuSans-73" transform="translate(1010.005859 0)"/>
     <use xlink:href="#DejaVuSans-79" transform="translate(1062.105469 0)"/>
     <use xlink:href="#DejaVuSans-20" transform="translate(1121.285156 0)"/>
     <use xlink:href="#DejaVuSans-70" transform="translate(1153.072266 0)"/>
     <use xlink:href="#DejaVuSans-72" transform="translate(1216.548828 0)"/>
     <use xlink:href="#DejaVuSans-6f" transform="translate(1255.412109 0)"/>
     <use xlink:href="#DejaVuSans-6d" transform="translate(1316.59375 0)"/>
     <use xlink:href="#DejaVuSans-70" transform="translate(1414.005859 0)"/>
     <use xlink:href="#DejaVuSans-74" transform="translate(1477.482422 0)"/>
     <use xlink:href="#DejaVuSans-73" transform="translate(1516.691406 0)"/>
     <use xlink:href="#DejaVuSans-3b" transform="translate(1568.791016 0)"/>
     <use xlink:href="#DejaVuSans-20" transform="translate(1602.482422 0)"/>
     <use xlink:href="#DejaVuSans-70" transform="translate(1634.269531 0)"/>
     <use xlink:href="#DejaVuSans-72" transform="translate(1697.746094 0)"/>
     <use xlink:href="#DejaVuSans-65" transform="translate(1736.609375 0)"/>
     <use xlink:href="#DejaVuSans-73" transform="translate(1798.132812 0)"/>
     <use xlink:href="#DejaVuSans-65" transform="translate(1850.232422 0)"/>
     <use xlink:href="#DejaVuSans-72" transform="translate(1911.755859 0)"/>
     <use xlink:href="#DejaVuSans-76" transform="translate(1952.869141 0)"/>
     <use xlink:href="#DejaVuSans-65" transform="translate(2012.048828 0)"/>
     <use xlink:href="#DejaVuSans-20" transform="translate(2073.572266 0)"/>
     <use xlink:href="#DejaVuSans-72" transform="translate(2105.359375 0)"/>
     <use xlink:href="#DejaVuSans-65" transform="translate(2144.222656 0)"/>
     <use xlink:href="#DejaVuSans-61" transform="translate(2205.746094 0)"/>
     <use xlink:href="#DejaVuSans-73" transform="translate(2267.025391 0)"/>
     <use xlink:href="#DejaVuSans-6f" transform="translate(2319.125 0)"/>
     <use xlink:href="#DejaVuSans-6e" transform="translate(2380.306641 0)"/>
     <use xlink:href="#DejaVuSans-69" transform="translate(2443.685547 0)"/>
     <use xlink:href="#DejaVuSans-6e" transform="translate(2471.46875 0)"/>
     <use xlink:href="#DejaVuSans-67" transform="translate(2534.847656 0)"/>
     <use xlink:href="#DejaVuSans-20" transform="translate(2598.324219 0)"/>
     <use xlink:href="#DejaVuSans-62" transform="translate(2630.111328 0)"/>
     <use xlink:href="#DejaVuSans-75" transform="translate(2693.587891 0)"/>
     <use xlink:href="#DejaVuSans-64" transform="translate(2756.966797 0)"/>
     <use xlink:href="#DejaVuSans-67" transform="translate(2820.443359 0)"/>
     <use xlink:href="#DejaVuSans-65" transform="translate(2883.919922 0)"/>
     <use xlink:href="#DejaVuSans-74" transform="translate(2945.443359 0)"/>
     <use xlink:href="#DejaVuSans-20" transform="translate(2984.652344 0)"/>
     <use xlink:href="#DejaVuSans-66" transform="translate(3016.439453 0)"/>
     <use xlink:href="#DejaVuSans-6f" transform="translate(3051.644531 0)"/>
     <use xlink:href="#DejaVuSans-72" transform="translate(3112.826172 0)"/>
     <use xlink:href="#DejaVuSans-20" transform="translate(3153.939453 0)"/>
     <use xlink:href="#DejaVuSans-68" transform="translate(3185.726562 0)"/>
     <use xlink:href="#DejaVuSans-61" transform="translate(3249.105469 0)"/>
     <use xlink:href="#DejaVuSans-72" transform="translate(3310.384766 0)"/>
     <use xlink:href="#DejaVuSans-64" transform="translate(3349.748047 0)"/>
     <use xlink:href="#DejaVuSans-20" transform="translate(3413.224609 0)"/>
     <use xlink:href="#DejaVuSans-70" transform="translate(3445.011719 0)"/>
     <use xlink:href="#DejaVuSans-72" transform="translate(3508.488281 0)"/>
     <use xlink:href="#DejaVuSans-6f" transform="translate(3547.351562 0)"/>
     <use xlink:href="#DejaVuSans-6d" transform="translate(3608.533203 0)"/>
     <use xlink:href="#DejaVuSans-70" transform="translate(3705.945312 0)"/>
     <use xlink:href="#DejaVuSans-74" transform="translate(3769.421875 0)"/>
     <use xlink:href="#DejaVuSans-73" transform="translate(3808.630859 0)"/>
    </g>
   </g>
   <g id="text_3">
    <!-- Prompt q -->
    <g style="fill: #202020" transform="translate(38.370544 67.202437) scale(0.09 -0.09)">
     <defs>
      <path id="DejaVuSans-Bold-50" d="M 588 4666 
L 2584 4666 
Q 3475 4666 3951 4270 
Q 4428 3875 4428 3144 
Q 4428 2409 3951 2014 
Q 3475 1619 2584 1619 
L 1791 1619 
L 1791 0 
L 588 0 
L 588 4666 
z
M 1791 3794 
L 1791 2491 
L 2456 2491 
Q 2806 2491 2997 2661 
Q 3188 2831 3188 3144 
Q 3188 3456 2997 3625 
Q 2806 3794 2456 3794 
L 1791 3794 
z
" transform="scale(0.015625)"/>
      <path id="DejaVuSans-Bold-6f" d="M 2203 2784 
Q 1831 2784 1636 2517 
Q 1441 2250 1441 1747 
Q 1441 1244 1636 976 
Q 1831 709 2203 709 
Q 2569 709 2762 976 
Q 2956 1244 2956 1747 
Q 2956 2250 2762 2517 
Q 2569 2784 2203 2784 
z
M 2203 3584 
Q 3106 3584 3614 3096 
Q 4122 2609 4122 1747 
Q 4122 884 3614 396 
Q 3106 -91 2203 -91 
Q 1297 -91 786 396 
Q 275 884 275 1747 
Q 275 2609 786 3096 
Q 1297 3584 2203 3584 
z
" transform="scale(0.015625)"/>
      <path id="DejaVuSans-Bold-6d" d="M 3781 2919 
Q 3994 3244 4286 3414 
Q 4578 3584 4928 3584 
Q 5531 3584 5847 3212 
Q 6163 2841 6163 2131 
L 6163 0 
L 5038 0 
L 5038 1825 
Q 5041 1866 5042 1909 
Q 5044 1953 5044 2034 
Q 5044 2406 4934 2573 
Q 4825 2741 4581 2741 
Q 4263 2741 4089 2478 
Q 3916 2216 3909 1719 
L 3909 0 
L 2784 0 
L 2784 1825 
Q 2784 2406 2684 2573 
Q 2584 2741 2328 2741 
Q 2006 2741 1831 2477 
Q 1656 2213 1656 1722 
L 1656 0 
L 531 0 
L 531 3500 
L 1656 3500 
L 1656 2988 
Q 1863 3284 2130 3434 
Q 2397 3584 2719 3584 
Q 3081 3584 3359 3409 
Q 3638 3234 3781 2919 
z
" transform="scale(0.015625)"/>
      <path id="DejaVuSans-Bold-71" d="M 2181 2772 
Q 1825 2772 1636 2509 
Q 1447 2247 1447 1747 
Q 1447 1247 1636 984 
Q 1825 722 2181 722 
Q 2541 722 2730 984 
Q 2919 1247 2919 1747 
Q 2919 2247 2730 2509 
Q 2541 2772 2181 2772 
z
M 2919 506 
Q 2688 197 2409 53 
Q 2131 -91 1766 -91 
Q 1119 -91 703 423 
Q 288 938 288 1747 
Q 288 2556 703 3067 
Q 1119 3578 1766 3578 
Q 2131 3578 2409 3434 
Q 2688 3291 2919 2981 
L 2919 3500 
L 4044 3500 
L 4044 -1331 
L 2919 -1331 
L 2919 506 
z
" transform="scale(0.015625)"/>
     </defs>
     <use xlink:href="#DejaVuSans-Bold-50"/>
     <use xlink:href="#DejaVuSans-Bold-72" transform="translate(73.291016 0)"/>
     <use xlink:href="#DejaVuSans-Bold-6f" transform="translate(122.607422 0)"/>
     <use xlink:href="#DejaVuSans-Bold-6d" transform="translate(191.308594 0)"/>
     <use xlink:href="#DejaVuSans-Bold-70" transform="translate(295.507812 0)"/>
     <use xlink:href="#DejaVuSans-Bold-74" transform="translate(367.089844 0)"/>
     <use xlink:href="#DejaVuSans-Bold-20" transform="translate(414.892578 0)"/>
     <use xlink:href="#DejaVuSans-Bold-71" transform="translate(449.707031 0)"/>
    </g>
   </g>
   <g id="text_4">
    <!-- K=16 -->
    <g style="fill: #202020" transform="translate(165.014213 62.163422) scale(0.09 -0.09)">
     <defs>
      <path id="DejaVuSans-Bold-4b" d="M 588 4666 
L 1791 4666 
L 1791 2963 
L 3525 4666 
L 4922 4666 
L 2675 2456 
L 5153 0 
L 3647 0 
L 1791 1838 
L 1791 0 
L 588 0 
L 588 4666 
z
" transform="scale(0.015625)"/>
      <path id="DejaVuSans-Bold-3d" d="M 678 3084 
L 4684 3084 
L 4684 2350 
L 678 2350 
L 678 3084 
z
M 678 1663 
L 4684 1663 
L 4684 922 
L 678 922 
L 678 1663 
z
" transform="scale(0.015625)"/>
      <path id="DejaVuSans-Bold-31" d="M 750 831 
L 1813 831 
L 1813 3847 
L 722 3622 
L 722 4441 
L 1806 4666 
L 2950 4666 
L 2950 831 
L 4013 831 
L 4013 0 
L 750 0 
L 750 831 
z
" transform="scale(0.015625)"/>
      <path id="DejaVuSans-Bold-36" d="M 2316 2303 
Q 2000 2303 1842 2098 
Q 1684 1894 1684 1484 
Q 1684 1075 1842 870 
Q 2000 666 2316 666 
Q 2634 666 2792 870 
Q 2950 1075 2950 1484 
Q 2950 1894 2792 2098 
Q 2634 2303 2316 2303 
z
M 3803 4544 
L 3803 3681 
Q 3506 3822 3243 3889 
Q 2981 3956 2731 3956 
Q 2194 3956 1894 3657 
Q 1594 3359 1544 2772 
Q 1750 2925 1990 3001 
Q 2231 3078 2516 3078 
Q 3231 3078 3670 2659 
Q 4109 2241 4109 1563 
Q 4109 813 3618 361 
Q 3128 -91 2303 -91 
Q 1394 -91 895 523 
Q 397 1138 397 2266 
Q 397 3422 980 4083 
Q 1563 4744 2578 4744 
Q 2900 4744 3203 4694 
Q 3506 4644 3803 4544 
z
" transform="scale(0.015625)"/>
     </defs>
     <use xlink:href="#DejaVuSans-Bold-4b"/>
     <use xlink:href="#DejaVuSans-Bold-3d" transform="translate(77.490234 0)"/>
     <use xlink:href="#DejaVuSans-Bold-31" transform="translate(161.279297 0)"/>
     <use xlink:href="#DejaVuSans-Bold-36" transform="translate(230.859375 0)"/>
    </g>
    <!-- rollouts -->
    <g style="fill: #202020" transform="translate(159.013744 72.241453) scale(0.09 -0.09)">
     <defs>
      <path id="DejaVuSans-Bold-75" d="M 500 1363 
L 500 3500 
L 1625 3500 
L 1625 3150 
Q 1625 2866 1622 2436 
Q 1619 2006 1619 1863 
Q 1619 1441 1641 1255 
Q 1663 1069 1716 984 
Q 1784 875 1895 815 
Q 2006 756 2150 756 
Q 2500 756 2700 1025 
Q 2900 1294 2900 1772 
L 2900 3500 
L 4019 3500 
L 4019 0 
L 2900 0 
L 2900 506 
Q 2647 200 2364 54 
Q 2081 -91 1741 -91 
Q 1134 -91 817 281 
Q 500 653 500 1363 
z
" transform="scale(0.015625)"/>
      <path id="DejaVuSans-Bold-73" d="M 3272 3391 
L 3272 2541 
Q 2913 2691 2578 2766 
Q 2244 2841 1947 2841 
Q 1628 2841 1473 2761 
Q 1319 2681 1319 2516 
Q 1319 2381 1436 2309 
Q 1553 2238 1856 2203 
L 2053 2175 
Q 2913 2066 3209 1816 
Q 3506 1566 3506 1031 
Q 3506 472 3093 190 
Q 2681 -91 1863 -91 
Q 1516 -91 1145 -36 
Q 775 19 384 128 
L 384 978 
Q 719 816 1070 734 
Q 1422 653 1784 653 
Q 2113 653 2278 743 
Q 2444 834 2444 1013 
Q 2444 1163 2330 1236 
Q 2216 1309 1875 1350 
L 1678 1375 
Q 931 1469 631 1722 
Q 331 1975 331 2491 
Q 331 3047 712 3315 
Q 1094 3584 1881 3584 
Q 2191 3584 2531 3537 
Q 2872 3491 3272 3391 
z
" transform="scale(0.015625)"/>
     </defs>
     <use xlink:href="#DejaVuSans-Bold-72"/>
     <use xlink:href="#DejaVuSans-Bold-6f" transform="translate(49.316406 0)"/>
     <use xlink:href="#DejaVuSans-Bold-6c" transform="translate(118.017578 0)"/>
     <use xlink:href="#DejaVuSans-Bold-6c" transform="translate(152.294922 0)"/>
     <use xlink:href="#DejaVuSans-Bold-6f" transform="translate(186.572266 0)"/>
     <use xlink:href="#DejaVuSans-Bold-75" transform="translate(255.273438 0)"/>
     <use xlink:href="#DejaVuSans-Bold-74" transform="translate(326.464844 0)"/>
     <use xlink:href="#DejaVuSans-Bold-73" transform="translate(374.267578 0)"/>
    </g>
   </g>
   <g id="text_5">
    <!-- Verifier -->
    <g style="fill: #202020" transform="translate(296.283853 62.163422) scale(0.09 -0.09)">
     <defs>
      <path id="DejaVuSans-Bold-56" d="M 31 4666 
L 1241 4666 
L 2478 1222 
L 3713 4666 
L 4922 4666 
L 3194 0 
L 1759 0 
L 31 4666 
z
" transform="scale(0.015625)"/>
     </defs>
     <use xlink:href="#DejaVuSans-Bold-56"/>
     <use xlink:href="#DejaVuSans-Bold-65" transform="translate(71.892578 0)"/>
     <use xlink:href="#DejaVuSans-Bold-72" transform="translate(139.714844 0)"/>
     <use xlink:href="#DejaVuSans-Bold-69" transform="translate(189.03125 0)"/>
     <use xlink:href="#DejaVuSans-Bold-66" transform="translate(223.308594 0)"/>
     <use xlink:href="#DejaVuSans-Bold-69" transform="translate(266.814453 0)"/>
     <use xlink:href="#DejaVuSans-Bold-65" transform="translate(301.091797 0)"/>
     <use xlink:href="#DejaVuSans-Bold-72" transform="translate(368.914062 0)"/>
    </g>
    <!-- correct mask -->
    <g style="fill: #202020" transform="translate(282.072994 72.241453) scale(0.09 -0.09)">
     <defs>
      <path id="DejaVuSans-Bold-63" d="M 3366 3391 
L 3366 2478 
Q 3138 2634 2908 2709 
Q 2678 2784 2431 2784 
Q 1963 2784 1702 2511 
Q 1441 2238 1441 1747 
Q 1441 1256 1702 982 
Q 1963 709 2431 709 
Q 2694 709 2930 787 
Q 3166 866 3366 1019 
L 3366 103 
Q 3103 6 2833 -42 
Q 2563 -91 2291 -91 
Q 1344 -91 809 395 
Q 275 881 275 1747 
Q 275 2613 809 3098 
Q 1344 3584 2291 3584 
Q 2566 3584 2833 3536 
Q 3100 3488 3366 3391 
z
" transform="scale(0.015625)"/>
      <path id="DejaVuSans-Bold-6b" d="M 538 4863 
L 1656 4863 
L 1656 2216 
L 2944 3500 
L 4244 3500 
L 2534 1894 
L 4378 0 
L 3022 0 
L 1656 1459 
L 1656 0 
L 538 0 
L 538 4863 
z
" transform="scale(0.015625)"/>
     </defs>
     <use xlink:href="#DejaVuSans-Bold-63"/>
     <use xlink:href="#DejaVuSans-Bold-6f" transform="translate(59.277344 0)"/>
     <use xlink:href="#DejaVuSans-Bold-72" transform="translate(127.978516 0)"/>
     <use xlink:href="#DejaVuSans-Bold-72" transform="translate(177.294922 0)"/>
     <use xlink:href="#DejaVuSans-Bold-65" transform="translate(226.611328 0)"/>
     <use xlink:href="#DejaVuSans-Bold-63" transform="translate(294.433594 0)"/>
     <use xlink:href="#DejaVuSans-Bold-74" transform="translate(353.710938 0)"/>
     <use xlink:href="#DejaVuSans-Bold-20" transform="translate(401.513672 0)"/>
     <use xlink:href="#DejaVuSans-Bold-6d" transform="translate(436.328125 0)"/>
     <use xlink:href="#DejaVuSans-Bold-61" transform="translate(540.527344 0)"/>
     <use xlink:href="#DejaVuSans-Bold-73" transform="translate(608.007812 0)"/>
     <use xlink:href="#DejaVuSans-Bold-6b" transform="translate(667.529297 0)"/>
    </g>
   </g>
   <g id="text_6">
    <!-- Raw task -->
    <g style="fill: #202020" transform="translate(421.377188 62.163422) scale(0.09 -0.09)">
     <defs>
      <path id="DejaVuSans-52" d="M 2841 2188 
Q 3044 2119 3236 1894 
Q 3428 1669 3622 1275 
L 4263 0 
L 3584 0 
L 2988 1197 
Q 2756 1666 2539 1819 
Q 2322 1972 1947 1972 
L 1259 1972 
L 1259 0 
L 628 0 
L 628 4666 
L 2053 4666 
Q 2853 4666 3247 4331 
Q 3641 3997 3641 3322 
Q 3641 2881 3436 2590 
Q 3231 2300 2841 2188 
z
M 1259 4147 
L 1259 2491 
L 2053 2491 
Q 2509 2491 2742 2702 
Q 2975 2913 2975 3322 
Q 2975 3731 2742 3939 
Q 2509 4147 2053 4147 
L 1259 4147 
z
" transform="scale(0.015625)"/>
      <path id="DejaVuSans-77" d="M 269 3500 
L 844 3500 
L 1563 769 
L 2278 3500 
L 2956 3500 
L 3675 769 
L 4391 3500 
L 4966 3500 
L 4050 0 
L 3372 0 
L 2619 2869 
L 1863 0 
L 1184 0 
L 269 3500 
z
" transform="scale(0.015625)"/>
      <path id="DejaVuSans-6b" d="M 581 4863 
L 1159 4863 
L 1159 1991 
L 2875 3500 
L 3609 3500 
L 1753 1863 
L 3688 0 
L 2938 0 
L 1159 1709 
L 1159 0 
L 581 0 
L 581 4863 
z
" transform="scale(0.015625)"/>
     </defs>
     <use xlink:href="#DejaVuSans-52"/>
     <use xlink:href="#DejaVuSans-61" transform="translate(67.232422 0)"/>
     <use xlink:href="#DejaVuSans-77" transform="translate(128.511719 0)"/>
     <use xlink:href="#DejaVuSans-20" transform="translate(210.298828 0)"/>
     <use xlink:href="#DejaVuSans-74" transform="translate(242.085938 0)"/>
     <use xlink:href="#DejaVuSans-61" transform="translate(281.294922 0)"/>
     <use xlink:href="#DejaVuSans-73" transform="translate(342.574219 0)"/>
     <use xlink:href="#DejaVuSans-6b" transform="translate(394.673828 0)"/>
    </g>
    <!-- reward -->
    <g style="fill: #202020" transform="translate(426.159141 72.241453) scale(0.09 -0.09)">
     <use xlink:href="#DejaVuSans-72"/>
     <use xlink:href="#DejaVuSans-65" transform="translate(38.863281 0)"/>
     <use xlink:href="#DejaVuSans-77" transform="translate(100.386719 0)"/>
     <use xlink:href="#DejaVuSans-61" transform="translate(182.173828 0)"/>
     <use xlink:href="#DejaVuSans-72" transform="translate(243.453125 0)"/>
     <use xlink:href="#DejaVuSans-64" transform="translate(282.816406 0)"/>
    </g>
   </g>
   <g id="text_7">
    <!-- Solve-rate gate -->
    <g style="fill: #202020" transform="translate(109.135969 119.682422) scale(0.09 -0.09)">
     <defs>
      <path id="DejaVuSans-53" d="M 3425 4513 
L 3425 3897 
Q 3066 4069 2747 4153 
Q 2428 4238 2131 4238 
Q 1616 4238 1336 4038 
Q 1056 3838 1056 3469 
Q 1056 3159 1242 3001 
Q 1428 2844 1947 2747 
L 2328 2669 
Q 3034 2534 3370 2195 
Q 3706 1856 3706 1288 
Q 3706 609 3251 259 
Q 2797 -91 1919 -91 
Q 1588 -91 1214 -16 
Q 841 59 441 206 
L 441 856 
Q 825 641 1194 531 
Q 1563 422 1919 422 
Q 2459 422 2753 634 
Q 3047 847 3047 1241 
Q 3047 1584 2836 1778 
Q 2625 1972 2144 2069 
L 1759 2144 
Q 1053 2284 737 2584 
Q 422 2884 422 3419 
Q 422 4038 858 4394 
Q 1294 4750 2059 4750 
Q 2388 4750 2728 4690 
Q 3069 4631 3425 4513 
z
" transform="scale(0.015625)"/>
      <path id="DejaVuSans-2d" d="M 313 2009 
L 1997 2009 
L 1997 1497 
L 313 1497 
L 313 2009 
z
" transform="scale(0.015625)"/>
     </defs>
     <use xlink:href="#DejaVuSans-53"/>
     <use xlink:href="#DejaVuSans-6f" transform="translate(63.476562 0)"/>
     <use xlink:href="#DejaVuSans-6c" transform="translate(124.658203 0)"/>
     <use xlink:href="#DejaVuSans-76" transform="translate(152.441406 0)"/>
     <use xlink:href="#DejaVuSans-65" transform="translate(211.621094 0)"/>
     <use xlink:href="#DejaVuSans-2d" transform="translate(273.144531 0)"/>
     <use xlink:href="#DejaVuSans-72" transform="translate(309.228516 0)"/>
     <use xlink:href="#DejaVuSans-61" transform="translate(350.341797 0)"/>
     <use xlink:href="#DejaVuSans-74" transform="translate(411.621094 0)"/>
     <use xlink:href="#DejaVuSans-65" transform="translate(450.830078 0)"/>
     <use xlink:href="#DejaVuSans-20" transform="translate(512.353516 0)"/>
     <use xlink:href="#DejaVuSans-67" transform="translate(544.140625 0)"/>
     <use xlink:href="#DejaVuSans-61" transform="translate(607.617188 0)"/>
     <use xlink:href="#DejaVuSans-74" transform="translate(668.896484 0)"/>
     <use xlink:href="#DejaVuSans-65" transform="translate(708.105469 0)"/>
    </g>
    <!-- activate on easy groups -->
    <g style="fill: #202020" transform="translate(89.728313 129.760453) scale(0.09 -0.09)">
     <defs>
      <path id="DejaVuSans-63" d="M 3122 3366 
L 3122 2828 
Q 2878 2963 2633 3030 
Q 2388 3097 2138 3097 
Q 1578 3097 1268 2742 
Q 959 2388 959 1747 
Q 959 1106 1268 751 
Q 1578 397 2138 397 
Q 2388 397 2633 464 
Q 2878 531 3122 666 
L 3122 134 
Q 2881 22 2623 -34 
Q 2366 -91 2075 -91 
Q 1284 -91 818 406 
Q 353 903 353 1747 
Q 353 2603 823 3093 
Q 1294 3584 2113 3584 
Q 2378 3584 2631 3529 
Q 2884 3475 3122 3366 
z
" transform="scale(0.015625)"/>
     </defs>
     <use xlink:href="#DejaVuSans-61"/>
     <use xlink:href="#DejaVuSans-63" transform="translate(61.279297 0)"/>
     <use xlink:href="#DejaVuSans-74" transform="translate(116.259766 0)"/>
     <use xlink:href="#DejaVuSans-69" transform="translate(155.46875 0)"/>
     <use xlink:href="#DejaVuSans-76" transform="translate(183.251953 0)"/>
     <use xlink:href="#DejaVuSans-61" transform="translate(242.431641 0)"/>
     <use xlink:href="#DejaVuSans-74" transform="translate(303.710938 0)"/>
     <use xlink:href="#DejaVuSans-65" transform="translate(342.919922 0)"/>
     <use xlink:href="#DejaVuSans-20" transform="translate(404.443359 0)"/>
     <use xlink:href="#DejaVuSans-6f" transform="translate(436.230469 0)"/>
     <use xlink:href="#DejaVuSans-6e" transform="translate(497.412109 0)"/>
     <use xlink:href="#DejaVuSans-20" transform="translate(560.791016 0)"/>
     <use xlink:href="#DejaVuSans-65" transform="translate(592.578125 0)"/>
     <use xlink:href="#DejaVuSans-61" transform="translate(654.101562 0)"/>
     <use xlink:href="#DejaVuSans-73" transform="translate(715.380859 0)"/>
     <use xlink:href="#DejaVuSans-79" transform="translate(767.480469 0)"/>
     <use xlink:href="#DejaVuSans-20" transform="translate(826.660156 0)"/>
     <use xlink:href="#DejaVuSans-67" transform="translate(858.447266 0)"/>
     <use xlink:href="#DejaVuSans-72" transform="translate(921.923828 0)"/>
     <use xlink:href="#DejaVuSans-6f" transform="translate(960.787109 0)"/>
     <use xlink:href="#DejaVuSans-75" transform="translate(1021.96875 0)"/>
     <use xlink:href="#DejaVuSans-70" transform="translate(1085.347656 0)"/>
     <use xlink:href="#DejaVuSans-73" transform="translate(1148.824219 0)"/>
    </g>
   </g>
   <g id="text_8">
    <!-- Correct-length quantile -->
    <g style="fill: #202020" transform="translate(317.560725 119.682422) scale(0.09 -0.09)">
     <defs>
      <path id="DejaVuSans-71" d="M 947 1747 
Q 947 1113 1208 752 
Q 1469 391 1925 391 
Q 2381 391 2643 752 
Q 2906 1113 2906 1747 
Q 2906 2381 2643 2742 
Q 2381 3103 1925 3103 
Q 1469 3103 1208 2742 
Q 947 2381 947 1747 
z
M 2906 525 
Q 2725 213 2448 61 
Q 2172 -91 1784 -91 
Q 1150 -91 751 415 
Q 353 922 353 1747 
Q 353 2572 751 3078 
Q 1150 3584 1784 3584 
Q 2172 3584 2448 3432 
Q 2725 3281 2906 2969 
L 2906 3500 
L 3481 3500 
L 3481 -1331 
L 2906 -1331 
L 2906 525 
z
" transform="scale(0.015625)"/>
     </defs>
     <use xlink:href="#DejaVuSans-43"/>
     <use xlink:href="#DejaVuSans-6f" transform="translate(69.824219 0)"/>
     <use xlink:href="#DejaVuSans-72" transform="translate(131.005859 0)"/>
     <use xlink:href="#DejaVuSans-72" transform="translate(170.369141 0)"/>
     <use xlink:href="#DejaVuSans-65" transform="translate(209.232422 0)"/>
     <use xlink:href="#DejaVuSans-63" transform="translate(270.755859 0)"/>
     <use xlink:href="#DejaVuSans-74" transform="translate(325.736328 0)"/>
     <use xlink:href="#DejaVuSans-2d" transform="translate(364.945312 0)"/>
     <use xlink:href="#DejaVuSans-6c" transform="translate(401.029297 0)"/>
     <use xlink:href="#DejaVuSans-65" transform="translate(428.8125 0)"/>
     <use xlink:href="#DejaVuSans-6e" transform="translate(490.335938 0)"/>
     <use xlink:href="#DejaVuSans-67" transform="translate(553.714844 0)"/>
     <use xlink:href="#DejaVuSans-74" transform="translate(617.191406 0)"/>
     <use xlink:href="#DejaVuSans-68" transform="translate(656.400391 0)"/>
     <use xlink:href="#DejaVuSans-20" transform="translate(719.779297 0)"/>
     <use xlink:href="#DejaVuSans-71" transform="translate(751.566406 0)"/>
     <use xlink:href="#DejaVuSans-75" transform="translate(815.042969 0)"/>
     <use xlink:href="#DejaVuSans-61" transform="translate(878.421875 0)"/>
     <use xlink:href="#DejaVuSans-6e" transform="translate(939.701172 0)"/>
     <use xlink:href="#DejaVuSans-74" transform="translate(1003.080078 0)"/>
     <use xlink:href="#DejaVuSans-69" transform="translate(1042.289062 0)"/>
     <use xlink:href="#DejaVuSans-6c" transform="translate(1070.072266 0)"/>
     <use xlink:href="#DejaVuSans-65" transform="translate(1097.855469 0)"/>
    </g>
    <!-- + minimum floor -->
    <g style="fill: #202020" transform="translate(331.556428 129.760453) scale(0.09 -0.09)">
     <defs>
      <path id="DejaVuSans-2b" d="M 2944 4013 
L 2944 2272 
L 4684 2272 
L 4684 1741 
L 2944 1741 
L 2944 0 
L 2419 0 
L 2419 1741 
L 678 1741 
L 678 2272 
L 2419 2272 
L 2419 4013 
L 2944 4013 
z
" transform="scale(0.015625)"/>
     </defs>
     <use xlink:href="#DejaVuSans-2b"/>
     <use xlink:href="#DejaVuSans-20" transform="translate(83.789062 0)"/>
     <use xlink:href="#DejaVuSans-6d" transform="translate(115.576172 0)"/>
     <use xlink:href="#DejaVuSans-69" transform="translate(212.988281 0)"/>
     <use xlink:href="#DejaVuSans-6e" transform="translate(240.771484 0)"/>
     <use xlink:href="#DejaVuSans-69" transform="translate(304.150391 0)"/>
     <use xlink:href="#DejaVuSans-6d" transform="translate(331.933594 0)"/>
     <use xlink:href="#DejaVuSans-75" transform="translate(429.345703 0)"/>
     <use xlink:href="#DejaVuSans-6d" transform="translate(492.724609 0)"/>
     <use xlink:href="#DejaVuSans-20" transform="translate(590.136719 0)"/>
     <use xlink:href="#DejaVuSans-66" transform="translate(621.923828 0)"/>
     <use xlink:href="#DejaVuSans-6c" transform="translate(657.128906 0)"/>
     <use xlink:href="#DejaVuSans-6f" transform="translate(684.912109 0)"/>
     <use xlink:href="#DejaVuSans-6f" transform="translate(746.09375 0)"/>
     <use xlink:href="#DejaVuSans-72" transform="translate(807.275391 0)"/>
    </g>
   </g>
   <g id="text_9">
    <!-- Adaptive target length -->
    <g style="fill: #202020" transform="translate(193.6665 172.79805) scale(0.096 -0.096)">
     <defs>
      <path id="DejaVuSans-Bold-41" d="M 3419 850 
L 1538 850 
L 1241 0 
L 31 0 
L 1759 4666 
L 3194 4666 
L 4922 0 
L 3713 0 
L 3419 850 
z
M 1838 1716 
L 3116 1716 
L 2478 3572 
L 1838 1716 
z
" transform="scale(0.015625)"/>
     </defs>
     <use xlink:href="#DejaVuSans-Bold-41"/>
     <use xlink:href="#DejaVuSans-Bold-64" transform="translate(77.392578 0)"/>
     <use xlink:href="#DejaVuSans-Bold-61" transform="translate(148.974609 0)"/>
     <use xlink:href="#DejaVuSans-Bold-70" transform="translate(216.455078 0)"/>
     <use xlink:href="#DejaVuSans-Bold-74" transform="translate(288.037109 0)"/>
     <use xlink:href="#DejaVuSans-Bold-69" transform="translate(335.839844 0)"/>
     <use xlink:href="#DejaVuSans-Bold-76" transform="translate(370.117188 0)"/>
     <use xlink:href="#DejaVuSans-Bold-65" transform="translate(435.302734 0)"/>
     <use xlink:href="#DejaVuSans-Bold-20" transform="translate(503.125 0)"/>
     <use xlink:href="#DejaVuSans-Bold-74" transform="translate(537.939453 0)"/>
     <use xlink:href="#DejaVuSans-Bold-61" transform="translate(585.742188 0)"/>
     <use xlink:href="#DejaVuSans-Bold-72" transform="translate(653.222656 0)"/>
     <use xlink:href="#DejaVuSans-Bold-67" transform="translate(702.539062 0)"/>
     <use xlink:href="#DejaVuSans-Bold-65" transform="translate(774.121094 0)"/>
     <use xlink:href="#DejaVuSans-Bold-74" transform="translate(841.943359 0)"/>
     <use xlink:href="#DejaVuSans-Bold-20" transform="translate(889.746094 0)"/>
     <use xlink:href="#DejaVuSans-Bold-6c" transform="translate(924.560547 0)"/>
     <use xlink:href="#DejaVuSans-Bold-65" transform="translate(958.837891 0)"/>
     <use xlink:href="#DejaVuSans-Bold-6e" transform="translate(1026.660156 0)"/>
     <use xlink:href="#DejaVuSans-Bold-67" transform="translate(1097.851562 0)"/>
     <use xlink:href="#DejaVuSans-Bold-74" transform="translate(1169.433594 0)"/>
     <use xlink:href="#DejaVuSans-Bold-68" transform="translate(1217.236328 0)"/>
    </g>
    <!-- per prompt group -->
    <g style="fill: #202020" transform="translate(207.324 183.62295) scale(0.096 -0.096)">
     <use xlink:href="#DejaVuSans-Bold-70"/>
     <use xlink:href="#DejaVuSans-Bold-65" transform="translate(71.582031 0)"/>
     <use xlink:href="#DejaVuSans-Bold-72" transform="translate(139.404297 0)"/>
     <use xlink:href="#DejaVuSans-Bold-20" transform="translate(188.720703 0)"/>
     <use xlink:href="#DejaVuSans-Bold-70" transform="translate(223.535156 0)"/>
     <use xlink:href="#DejaVuSans-Bold-72" transform="translate(295.117188 0)"/>
     <use xlink:href="#DejaVuSans-Bold-6f" transform="translate(344.433594 0)"/>
     <use xlink:href="#DejaVuSans-Bold-6d" transform="translate(413.134766 0)"/>
     <use xlink:href="#DejaVuSans-Bold-70" transform="translate(517.333984 0)"/>
     <use xlink:href="#DejaVuSans-Bold-74" transform="translate(588.916016 0)"/>
     <use xlink:href="#DejaVuSans-Bold-20" transform="translate(636.71875 0)"/>
     <use xlink:href="#DejaVuSans-Bold-67" transform="translate(671.533203 0)"/>
     <use xlink:href="#DejaVuSans-Bold-72" transform="translate(743.115234 0)"/>
     <use xlink:href="#DejaVuSans-Bold-6f" transform="translate(792.431641 0)"/>
     <use xlink:href="#DejaVuSans-Bold-75" transform="translate(861.132812 0)"/>
     <use xlink:href="#DejaVuSans-Bold-70" transform="translate(932.324219 0)"/>
    </g>
   </g>
   <g id="text_10">
    <!-- Penalty only if -->
    <g style="fill: #202020" transform="translate(92.085778 234.027422) scale(0.09 -0.09)">
     <defs>
      <path id="DejaVuSans-50" d="M 1259 4147 
L 1259 2394 
L 2053 2394 
Q 2494 2394 2734 2622 
Q 2975 2850 2975 3272 
Q 2975 3691 2734 3919 
Q 2494 4147 2053 4147 
L 1259 4147 
z
M 628 4666 
L 2053 4666 
Q 2838 4666 3239 4311 
Q 3641 3956 3641 3272 
Q 3641 2581 3239 2228 
Q 2838 1875 2053 1875 
L 1259 1875 
L 1259 0 
L 628 0 
L 628 4666 
z
" transform="scale(0.015625)"/>
     </defs>
     <use xlink:href="#DejaVuSans-50"/>
     <use xlink:href="#DejaVuSans-65" transform="translate(56.677734 0)"/>
     <use xlink:href="#DejaVuSans-6e" transform="translate(118.201172 0)"/>
     <use xlink:href="#DejaVuSans-61" transform="translate(181.580078 0)"/>
     <use xlink:href="#DejaVuSans-6c" transform="translate(242.859375 0)"/>
     <use xlink:href="#DejaVuSans-74" transform="translate(270.642578 0)"/>
     <use xlink:href="#DejaVuSans-79" transform="translate(309.851562 0)"/>
     <use xlink:href="#DejaVuSans-20" transform="translate(369.03125 0)"/>
     <use xlink:href="#DejaVuSans-6f" transform="translate(400.818359 0)"/>
     <use xlink:href="#DejaVuSans-6e" transform="translate(462 0)"/>
     <use xlink:href="#DejaVuSans-6c" transform="translate(525.378906 0)"/>
     <use xlink:href="#DejaVuSans-79" transform="translate(553.162109 0)"/>
     <use xlink:href="#DejaVuSans-20" transform="translate(612.341797 0)"/>
     <use xlink:href="#DejaVuSans-69" transform="translate(644.128906 0)"/>
     <use xlink:href="#DejaVuSans-66" transform="translate(671.912109 0)"/>
    </g>
    <!-- correct AND len &gt; target -->
    <g style="fill: #202020" transform="translate(68.1957 244.105453) scale(0.09 -0.09)">
     <defs>
      <path id="DejaVuSans-41" d="M 2188 4044 
L 1331 1722 
L 3047 1722 
L 2188 4044 
z
M 1831 4666 
L 2547 4666 
L 4325 0 
L 3669 0 
L 3244 1197 
L 1141 1197 
L 716 0 
L 50 0 
L 1831 4666 
z
" transform="scale(0.015625)"/>
      <path id="DejaVuSans-4e" d="M 628 4666 
L 1478 4666 
L 3547 763 
L 3547 4666 
L 4159 4666 
L 4159 0 
L 3309 0 
L 1241 3903 
L 1241 0 
L 628 0 
L 628 4666 
z
" transform="scale(0.015625)"/>
      <path id="DejaVuSans-44" d="M 1259 4147 
L 1259 519 
L 2022 519 
Q 2988 519 3436 956 
Q 3884 1394 3884 2338 
Q 3884 3275 3436 3711 
Q 2988 4147 2022 4147 
L 1259 4147 
z
M 628 4666 
L 1925 4666 
Q 3281 4666 3915 4102 
Q 4550 3538 4550 2338 
Q 4550 1131 3912 565 
Q 3275 0 1925 0 
L 628 0 
L 628 4666 
z
" transform="scale(0.015625)"/>
      <path id="DejaVuSans-3e" d="M 678 3150 
L 678 3719 
L 4684 2266 
L 4684 1747 
L 678 294 
L 678 863 
L 3897 2003 
L 678 3150 
z
" transform="scale(0.015625)"/>
     </defs>
     <use xlink:href="#DejaVuSans-63"/>
     <use xlink:href="#DejaVuSans-6f" transform="translate(54.980469 0)"/>
     <use xlink:href="#DejaVuSans-72" transform="translate(116.162109 0)"/>
     <use xlink:href="#DejaVuSans-72" transform="translate(155.525391 0)"/>
     <use xlink:href="#DejaVuSans-65" transform="translate(194.388672 0)"/>
     <use xlink:href="#DejaVuSans-63" transform="translate(255.912109 0)"/>
     <use xlink:href="#DejaVuSans-74" transform="translate(310.892578 0)"/>
     <use xlink:href="#DejaVuSans-20" transform="translate(350.101562 0)"/>
     <use xlink:href="#DejaVuSans-41" transform="translate(381.888672 0)"/>
     <use xlink:href="#DejaVuSans-4e" transform="translate(450.296875 0)"/>
     <use xlink:href="#DejaVuSans-44" transform="translate(525.101562 0)"/>
     <use xlink:href="#DejaVuSans-20" transform="translate(602.103516 0)"/>
     <use xlink:href="#DejaVuSans-6c" transform="translate(633.890625 0)"/>
     <use xlink:href="#DejaVuSans-65" transform="translate(661.673828 0)"/>
     <use xlink:href="#DejaVuSans-6e" transform="translate(723.197266 0)"/>
     <use xlink:href="#DejaVuSans-20" transform="translate(786.576172 0)"/>
     <use xlink:href="#DejaVuSans-3e" transform="translate(818.363281 0)"/>
     <use xlink:href="#DejaVuSans-20" transform="translate(902.152344 0)"/>
     <use xlink:href="#DejaVuSans-74" transform="translate(933.939453 0)"/>
     <use xlink:href="#DejaVuSans-61" transform="translate(973.148438 0)"/>
     <use xlink:href="#DejaVuSans-72" transform="translate(1034.427734 0)"/>
     <use xlink:href="#DejaVuSans-67" transform="translate(1073.791016 0)"/>
     <use xlink:href="#DejaVuSans-65" transform="translate(1137.267578 0)"/>
     <use xlink:href="#DejaVuSans-74" transform="translate(1198.791016 0)"/>
    </g>
   </g>
   <g id="text_11">
    <!-- GRPO update -->
    <g style="fill: #202020" transform="translate(356.958675 234.027422) scale(0.09 -0.09)">
     <defs>
      <path id="DejaVuSans-47" d="M 3809 666 
L 3809 1919 
L 2778 1919 
L 2778 2438 
L 4434 2438 
L 4434 434 
Q 4069 175 3628 42 
Q 3188 -91 2688 -91 
Q 1594 -91 976 548 
Q 359 1188 359 2328 
Q 359 3472 976 4111 
Q 1594 4750 2688 4750 
Q 3144 4750 3555 4637 
Q 3966 4525 4313 4306 
L 4313 3634 
Q 3963 3931 3569 4081 
Q 3175 4231 2741 4231 
Q 1884 4231 1454 3753 
Q 1025 3275 1025 2328 
Q 1025 1384 1454 906 
Q 1884 428 2741 428 
Q 3075 428 3337 486 
Q 3600 544 3809 666 
z
" transform="scale(0.015625)"/>
      <path id="DejaVuSans-4f" d="M 2522 4238 
Q 1834 4238 1429 3725 
Q 1025 3213 1025 2328 
Q 1025 1447 1429 934 
Q 1834 422 2522 422 
Q 3209 422 3611 934 
Q 4013 1447 4013 2328 
Q 4013 3213 3611 3725 
Q 3209 4238 2522 4238 
z
M 2522 4750 
Q 3503 4750 4090 4092 
Q 4678 3434 4678 2328 
Q 4678 1225 4090 567 
Q 3503 -91 2522 -91 
Q 1538 -91 948 565 
Q 359 1222 359 2328 
Q 359 3434 948 4092 
Q 1538 4750 2522 4750 
z
" transform="scale(0.015625)"/>
     </defs>
     <use xlink:href="#DejaVuSans-47"/>
     <use xlink:href="#DejaVuSans-52" transform="translate(77.490234 0)"/>
     <use xlink:href="#DejaVuSans-50" transform="translate(146.972656 0)"/>
     <use xlink:href="#DejaVuSans-4f" transform="translate(207.275391 0)"/>
     <use xlink:href="#DejaVuSans-20" transform="translate(285.986328 0)"/>
     <use xlink:href="#DejaVuSans-75" transform="translate(317.773438 0)"/>
     <use xlink:href="#DejaVuSans-70" transform="translate(381.152344 0)"/>
     <use xlink:href="#DejaVuSans-64" transform="translate(444.628906 0)"/>
     <use xlink:href="#DejaVuSans-61" transform="translate(508.105469 0)"/>
     <use xlink:href="#DejaVuSans-74" transform="translate(569.384766 0)"/>
     <use xlink:href="#DejaVuSans-65" transform="translate(608.59375 0)"/>
    </g>
    <!-- with original reward kept -->
    <g style="fill: #202020" transform="translate(331.041488 244.105453) scale(0.09 -0.09)">
     <use xlink:href="#DejaVuSans-77"/>
     <use xlink:href="#DejaVuSans-69" transform="translate(81.787109 0)"/>
     <use xlink:href="#DejaVuSans-74" transform="translate(109.570312 0)"/>
     <use xlink:href="#DejaVuSans-68" transform="translate(148.779297 0)"/>
     <use xlink:href="#DejaVuSans-20" transform="translate(212.158203 0)"/>
     <use xlink:href="#DejaVuSans-6f" transform="translate(243.945312 0)"/>
     <use xlink:href="#DejaVuSans-72" transform="translate(305.126953 0)"/>
     <use xlink:href="#DejaVuSans-69" transform="translate(346.240234 0)"/>
     <use xlink:href="#DejaVuSans-67" transform="translate(374.023438 0)"/>
     <use xlink:href="#DejaVuSans-69" transform="translate(437.5 0)"/>
     <use xlink:href="#DejaVuSans-6e" transform="translate(465.283203 0)"/>
     <use xlink:href="#DejaVuSans-61" transform="translate(528.662109 0)"/>
     <use xlink:href="#DejaVuSans-6c" transform="translate(589.941406 0)"/>
     <use xlink:href="#DejaVuSans-20" transform="translate(617.724609 0)"/>
     <use xlink:href="#DejaVuSans-72" transform="translate(649.511719 0)"/>
     <use xlink:href="#DejaVuSans-65" transform="translate(688.375 0)"/>
     <use xlink:href="#DejaVuSans-77" transform="translate(749.898438 0)"/>
     <use xlink:href="#DejaVuSans-61" transform="translate(831.685547 0)"/>
     <use xlink:href="#DejaVuSans-72" transform="translate(892.964844 0)"/>
     <use xlink:href="#DejaVuSans-64" transform="translate(932.328125 0)"/>
     <use xlink:href="#DejaVuSans-20" transform="translate(995.804688 0)"/>
     <use xlink:href="#DejaVuSans-6b" transform="translate(1027.591797 0)"/>
     <use xlink:href="#DejaVuSans-65" transform="translate(1081.876953 0)"/>
     <use xlink:href="#DejaVuSans-70" transform="translate(1143.400391 0)"/>
     <use xlink:href="#DejaVuSans-74" transform="translate(1206.876953 0)"/>
    </g>
   </g>
   <g id="text_12">
    <!-- Core design: correct-only + solve-rate gate + quantile target + lower-bound protection; avoids global short-answer pressure -->
    <g style="fill: #555555" transform="translate(22.0986 274.698) scale(0.083 -0.083)">
     <defs>
      <path id="DejaVuSans-3a" d="M 750 794 
L 1409 794 
L 1409 0 
L 750 0 
L 750 794 
z
M 750 3309 
L 1409 3309 
L 1409 2516 
L 750 2516 
L 750 3309 
z
" transform="scale(0.015625)"/>
     </defs>
     <use xlink:href="#DejaVuSans-43"/>
     <use xlink:href="#DejaVuSans-6f" transform="translate(69.824219 0)"/>
     <use xlink:href="#DejaVuSans-72" transform="translate(131.005859 0)"/>
     <use xlink:href="#DejaVuSans-65" transform="translate(169.869141 0)"/>
     <use xlink:href="#DejaVuSans-20" transform="translate(231.392578 0)"/>
     <use xlink:href="#DejaVuSans-64" transform="translate(263.179688 0)"/>
     <use xlink:href="#DejaVuSans-65" transform="translate(326.65625 0)"/>
     <use xlink:href="#DejaVuSans-73" transform="translate(388.179688 0)"/>
     <use xlink:href="#DejaVuSans-69" transform="translate(440.279297 0)"/>
     <use xlink:href="#DejaVuSans-67" transform="translate(468.0625 0)"/>
     <use xlink:href="#DejaVuSans-6e" transform="translate(531.539062 0)"/>
     <use xlink:href="#DejaVuSans-3a" transform="translate(594.917969 0)"/>
     <use xlink:href="#DejaVuSans-20" transform="translate(628.609375 0)"/>
     <use xlink:href="#DejaVuSans-63" transform="translate(660.396484 0)"/>
     <use xlink:href="#DejaVuSans-6f" transform="translate(715.376953 0)"/>
     <use xlink:href="#DejaVuSans-72" transform="translate(776.558594 0)"/>
     <use xlink:href="#DejaVuSans-72" transform="translate(815.921875 0)"/>
     <use xlink:href="#DejaVuSans-65" transform="translate(854.785156 0)"/>
     <use xlink:href="#DejaVuSans-63" transform="translate(916.308594 0)"/>
     <use xlink:href="#DejaVuSans-74" transform="translate(971.289062 0)"/>
     <use xlink:href="#DejaVuSans-2d" transform="translate(1010.498047 0)"/>
     <use xlink:href="#DejaVuSans-6f" transform="translate(1048.457031 0)"/>
     <use xlink:href="#DejaVuSans-6e" transform="translate(1109.638672 0)"/>
     <use xlink:href="#DejaVuSans-6c" transform="translate(1173.017578 0)"/>
     <use xlink:href="#DejaVuSans-79" transform="translate(1200.800781 0)"/>
     <use xlink:href="#DejaVuSans-20" transform="translate(1259.980469 0)"/>
     <use xlink:href="#DejaVuSans-2b" transform="translate(1291.767578 0)"/>
     <use xlink:href="#DejaVuSans-20" transform="translate(1375.556641 0)"/>
     <use xlink:href="#DejaVuSans-73" transform="translate(1407.34375 0)"/>
     <use xlink:href="#DejaVuSans-6f" transform="translate(1459.443359 0)"/>
     <use xlink:href="#DejaVuSans-6c" transform="translate(1520.625 0)"/>
     <use xlink:href="#DejaVuSans-76" transform="translate(1548.408203 0)"/>
     <use xlink:href="#DejaVuSans-65" transform="translate(1607.587891 0)"/>
     <use xlink:href="#DejaVuSans-2d" transform="translate(1669.111328 0)"/>
     <use xlink:href="#DejaVuSans-72" transform="translate(1705.195312 0)"/>
     <use xlink:href="#DejaVuSans-61" transform="translate(1746.308594 0)"/>
     <use xlink:href="#DejaVuSans-74" transform="translate(1807.587891 0)"/>
     <use xlink:href="#DejaVuSans-65" transform="translate(1846.796875 0)"/>
     <use xlink:href="#DejaVuSans-20" transform="translate(1908.320312 0)"/>
     <use xlink:href="#DejaVuSans-67" transform="translate(1940.107422 0)"/>
     <use xlink:href="#DejaVuSans-61" transform="translate(2003.583984 0)"/>
     <use xlink:href="#DejaVuSans-74" transform="translate(2064.863281 0)"/>
     <use xlink:href="#DejaVuSans-65" transform="translate(2104.072266 0)"/>
     <use xlink:href="#DejaVuSans-20" transform="translate(2165.595703 0)"/>
     <use xlink:href="#DejaVuSans-2b" transform="translate(2197.382812 0)"/>
     <use xlink:href="#DejaVuSans-20" transform="translate(2281.171875 0)"/>
     <use xlink:href="#DejaVuSans-71" transform="translate(2312.958984 0)"/>
     <use xlink:href="#DejaVuSans-75" transform="translate(2376.435547 0)"/>
     <use xlink:href="#DejaVuSans-61" transform="translate(2439.814453 0)"/>
     <use xlink:href="#DejaVuSans-6e" transform="translate(2501.09375 0)"/>
     <use xlink:href="#DejaVuSans-74" transform="translate(2564.472656 0)"/>
     <use xlink:href="#DejaVuSans-69" transform="translate(2603.681641 0)"/>
     <use xlink:href="#DejaVuSans-6c" transform="translate(2631.464844 0)"/>
     <use xlink:href="#DejaVuSans-65" transform="translate(2659.248047 0)"/>
     <use xlink:href="#DejaVuSans-20" transform="translate(2720.771484 0)"/>
     <use xlink:href="#DejaVuSans-74" transform="translate(2752.558594 0)"/>
     <use xlink:href="#DejaVuSans-61" transform="translate(2791.767578 0)"/>
     <use xlink:href="#DejaVuSans-72" transform="translate(2853.046875 0)"/>
     <use xlink:href="#DejaVuSans-67" transform="translate(2892.410156 0)"/>
     <use xlink:href="#DejaVuSans-65" transform="translate(2955.886719 0)"/>
     <use xlink:href="#DejaVuSans-74" transform="translate(3017.410156 0)"/>
     <use xlink:href="#DejaVuSans-20" transform="translate(3056.619141 0)"/>
     <use xlink:href="#DejaVuSans-2b" transform="translate(3088.40625 0)"/>
     <use xlink:href="#DejaVuSans-20" transform="translate(3172.195312 0)"/>
     <use xlink:href="#DejaVuSans-6c" transform="translate(3203.982422 0)"/>
     <use xlink:href="#DejaVuSans-6f" transform="translate(3231.765625 0)"/>
     <use xlink:href="#DejaVuSans-77" transform="translate(3292.947266 0)"/>
     <use xlink:href="#DejaVuSans-65" transform="translate(3374.734375 0)"/>
     <use xlink:href="#DejaVuSans-72" transform="translate(3436.257812 0)"/>
     <use xlink:href="#DejaVuSans-2d" transform="translate(3470.996094 0)"/>
     <use xlink:href="#DejaVuSans-62" transform="translate(3507.080078 0)"/>
     <use xlink:href="#DejaVuSans-6f" transform="translate(3570.556641 0)"/>
     <use xlink:href="#DejaVuSans-75" transform="translate(3631.738281 0)"/>
     <use xlink:href="#DejaVuSans-6e" transform="translate(3695.117188 0)"/>
     <use xlink:href="#DejaVuSans-64" transform="translate(3758.496094 0)"/>
     <use xlink:href="#DejaVuSans-20" transform="translate(3821.972656 0)"/>
     <use xlink:href="#DejaVuSans-70" transform="translate(3853.759766 0)"/>
     <use xlink:href="#DejaVuSans-72" transform="translate(3917.236328 0)"/>
     <use xlink:href="#DejaVuSans-6f" transform="translate(3956.099609 0)"/>
     <use xlink:href="#DejaVuSans-74" transform="translate(4017.28125 0)"/>
     <use xlink:href="#DejaVuSans-65" transform="translate(4056.490234 0)"/>
     <use xlink:href="#DejaVuSans-63" transform="translate(4118.013672 0)"/>
     <use xlink:href="#DejaVuSans-74" transform="translate(4172.994141 0)"/>
     <use xlink:href="#DejaVuSans-69" transform="translate(4212.203125 0)"/>
     <use xlink:href="#DejaVuSans-6f" transform="translate(4239.986328 0)"/>
     <use xlink:href="#DejaVuSans-6e" transform="translate(4301.167969 0)"/>
     <use xlink:href="#DejaVuSans-3b" transform="translate(4364.546875 0)"/>
     <use xlink:href="#DejaVuSans-20" transform="translate(4398.238281 0)"/>
     <use xlink:href="#DejaVuSans-61" transform="translate(4430.025391 0)"/>
     <use xlink:href="#DejaVuSans-76" transform="translate(4491.304688 0)"/>
     <use xlink:href="#DejaVuSans-6f" transform="translate(4550.484375 0)"/>
     <use xlink:href="#DejaVuSans-69" transform="translate(4611.666016 0)"/>
     <use xlink:href="#DejaVuSans-64" transform="translate(4639.449219 0)"/>
     <use xlink:href="#DejaVuSans-73" transform="translate(4702.925781 0)"/>
     <use xlink:href="#DejaVuSans-20" transform="translate(4755.025391 0)"/>
     <use xlink:href="#DejaVuSans-67" transform="translate(4786.8125 0)"/>
     <use xlink:href="#DejaVuSans-6c" transform="translate(4850.289062 0)"/>
     <use xlink:href="#DejaVuSans-6f" transform="translate(4878.072266 0)"/>
     <use xlink:href="#DejaVuSans-62" transform="translate(4939.253906 0)"/>
     <use xlink:href="#DejaVuSans-61" transform="translate(5002.730469 0)"/>
     <use xlink:href="#DejaVuSans-6c" transform="translate(5064.009766 0)"/>
     <use xlink:href="#DejaVuSans-20" transform="translate(5091.792969 0)"/>
     <use xlink:href="#DejaVuSans-73" transform="translate(5123.580078 0)"/>
     <use xlink:href="#DejaVuSans-68" transform="translate(5175.679688 0)"/>
     <use xlink:href="#DejaVuSans-6f" transform="translate(5239.058594 0)"/>
     <use xlink:href="#DejaVuSans-72" transform="translate(5300.240234 0)"/>
     <use xlink:href="#DejaVuSans-74" transform="translate(5341.353516 0)"/>
     <use xlink:href="#DejaVuSans-2d" transform="translate(5380.5625 0)"/>
     <use xlink:href="#DejaVuSans-61" transform="translate(5416.646484 0)"/>
     <use xlink:href="#DejaVuSans-6e" transform="translate(5477.925781 0)"/>
     <use xlink:href="#DejaVuSans-73" transform="translate(5541.304688 0)"/>
     <use xlink:href="#DejaVuSans-77" transform="translate(5593.404297 0)"/>
     <use xlink:href="#DejaVuSans-65" transform="translate(5675.191406 0)"/>
     <use xlink:href="#DejaVuSans-72" transform="translate(5736.714844 0)"/>
     <use xlink:href="#DejaVuSans-20" transform="translate(5777.828125 0)"/>
     <use xlink:href="#DejaVuSans-70" transform="translate(5809.615234 0)"/>
     <use xlink:href="#DejaVuSans-72" transform="translate(5873.091797 0)"/>
     <use xlink:href="#DejaVuSans-65" transform="translate(5911.955078 0)"/>
     <use xlink:href="#DejaVuSans-73" transform="translate(5973.478516 0)"/>
     <use xlink:href="#DejaVuSans-73" transform="translate(6025.578125 0)"/>
     <use xlink:href="#DejaVuSans-75" transform="translate(6077.677734 0)"/>
     <use xlink:href="#DejaVuSans-72" transform="translate(6141.056641 0)"/>
     <use xlink:href="#DejaVuSans-65" transform="translate(6179.919922 0)"/>
    </g>
   </g>
  </g>
 </g>
 <defs>
  <clipPath id="pcf81d9e4c9">
   <rect x="7.2" y="7.2" width="496.62" height="277.2"/>
  </clipPath>
 </defs>
</svg>
